<svg xmlns="http://www.w3.org/2000/svg" width="460.164" height="117.916" viewBox="0 0 460.164 117.916">
  <g id="Capa_1" data-name="Capa 1" transform="translate(0 0.01)">
    <g id="Grupo_5" data-name="Grupo 5" transform="translate(0 -0.01)">
      <g id="Grupo_2" data-name="Grupo 2" transform="translate(140.112 28.228)">
        <g id="Grupo_1" data-name="Grupo 1" transform="translate(0 7.575)">
          <path id="Trazado_1" data-name="Trazado 1" d="M259.094,31.761a39.248,39.248,0,0,0-24.214,8.691v-7.4H209.91v78.4h24.97V59.493a26.87,26.87,0,0,1,19.592-8.68c7.406,0,10.732,4.622,10.732,12.75V96.84c0,6.843-.068,14.61-.068,14.61h25.026V58.185c0-1.3-.733-26.435-31.068-26.435Z" transform="translate(-113.391 -31.75)" fill="#014a4a"/>
          <path id="Trazado_2" data-name="Trazado 2" d="M179.562,84.867a26.85,26.85,0,0,1-19.592,8.691c-7.406,0-10.721-4.622-10.721-12.761V47.52h0a14.606,14.606,0,0,0-14.61-14.61H124.29V86.164c0,1.3.733,26.435,31.068,26.435a39.289,39.289,0,0,0,24.214-8.692v7.406h24.97V32.91h-24.97V84.867Z" transform="translate(-124.29 -31.602)" fill="#014a4a"/>
          <path id="Trazado_3" data-name="Trazado 3" d="M294.87,111.314h24.925l.045-78.4H294.87Z" transform="translate(-102.575 -31.602)" fill="#014a4a"/>
        </g>
        <path id="Trazado_4" data-name="Trazado 4" d="M418.837,40.384l-14.8-15.354a148.714,148.714,0,0,0-13.043,11.893,52.18,52.18,0,0,0-21.779-4.3c-29.4,0-44.573,18.3-44.573,41.225s16.1,40.865,44.393,40.865,44.179-18.307,44.179-40.865a42.8,42.8,0,0,0-6.595-23.685c3.021-2.187,6.786-5.152,12.209-9.785ZM369.044,96.422c-13.685,0-18.871-10-18.871-23.493s4.633-22,18.871-22,18.86,8.139,18.86,22S382.73,96.422,369.044,96.422Z" transform="translate(-98.785 -25.03)" fill="#014a4a"/>
      </g>
      <g id="Grupo_3" data-name="Grupo 3" transform="translate(0 14.711)">
        <path id="Trazado_5" data-name="Trazado 5" d="M77.726,13.04A26.086,26.086,0,0,0,51.64,39.126V90.159H83.768a26.086,26.086,0,0,0,26.086-26.086V13.04Z" transform="translate(6.574 -13.04)" fill="#e36641"/>
        <path id="Trazado_6" data-name="Trazado 6" d="M32.117,34.04H0V85.073a26.086,26.086,0,0,0,26.086,26.086H58.2V60.126A26.086,26.086,0,0,0,32.117,34.04Z" transform="translate(0 -10.367)" fill="#014a4a"/>
      </g>
      <g id="Grupo_4" data-name="Grupo 4" transform="translate(332.328)">
        <path id="Trazado_7" data-name="Trazado 7" d="M316.9,24.4h-6.55L300.425,9.11V24.4H294.8V.43h6.55l9.92,15.32V.43H316.9Z" transform="translate(-294.8 0.066)" fill="#014a4a"/>
        <path id="Trazado_8" data-name="Trazado 8" d="M343.395.43V13.6a13.316,13.316,0,0,1-1.274,6.042,9.042,9.042,0,0,1-3.641,3.878,11.317,11.317,0,0,1-5.693,1.364,11.145,11.145,0,0,1-5.67-1.364,9,9,0,0,1-3.652-3.878A13.316,13.316,0,0,1,322.19,13.6V.43h5.625V12.864a12.015,12.015,0,0,0,.552,3.968,4.633,4.633,0,0,0,8.861,0,12.013,12.013,0,0,0,.552-3.968V.43h5.625Z" transform="translate(-291.313 0.066)" fill="#014a4a"/>
        <path id="Trazado_9" data-name="Trazado 9" d="M359.909,24.4h-5.625V5.334H347.43V.43h19.333v4.9h-6.854V24.4Z" transform="translate(-288.1 0.066)" fill="#014a4a"/>
        <path id="Trazado_10" data-name="Trazado 10" d="M370.02,21.781l2.649-4.284a17.025,17.025,0,0,0,2.153,1.465,8.7,8.7,0,0,0,2.018.834,7.634,7.634,0,0,0,2.018.271,5.777,5.777,0,0,0,1.928-.293,2.753,2.753,0,0,0,1.251-.834,1.984,1.984,0,0,0,.44-1.3,2.094,2.094,0,0,0-.586-1.5,5.346,5.346,0,0,0-1.556-1.082c-.642-.316-1.341-.631-2.1-.936s-1.544-.665-2.345-1.037a10.628,10.628,0,0,1-2.187-1.364,6.286,6.286,0,0,1-1.6-1.962,5.919,5.919,0,0,1-.62-2.8,6.312,6.312,0,0,1,1.093-3.731,7.147,7.147,0,0,1,3-2.4A10.577,10.577,0,0,1,379.9-.01a15.755,15.755,0,0,1,3.664.462A17.436,17.436,0,0,1,387.4,1.9l-2.187,4.52a11.2,11.2,0,0,0-2.48-1.116,8.549,8.549,0,0,0-2.48-.406,4.516,4.516,0,0,0-1.59.259,2.567,2.567,0,0,0-1.06.744,1.775,1.775,0,0,0-.372,1.116,1.968,1.968,0,0,0,.586,1.42,6.056,6.056,0,0,0,1.522,1.082c.631.316,1.308.643,2.04.969.778.327,1.567.7,2.367,1.1a12.257,12.257,0,0,1,2.221,1.432,6.57,6.57,0,0,1,1.635,1.973,5.711,5.711,0,0,1,.62,2.762,6.364,6.364,0,0,1-1.139,3.743,7.461,7.461,0,0,1-3.19,2.514,11.8,11.8,0,0,1-4.769.891,14.388,14.388,0,0,1-4.814-.812,14.8,14.8,0,0,1-4.272-2.345Z" transform="translate(-285.224 0.01)" fill="#014a4a"/>
      </g>
    </g>
  </g>
</svg>
